<?xml version="1.0" encoding="UTF-8" standalone="no"?>
<!DOCTYPE svg PUBLIC "-//W3C//DTD SVG 1.1//EN" "http://www.w3.org/Graphics/SVG/1.1/DTD/svg11.dtd">
<svg width="100%" height="100%" viewBox="0 0 174 182" version="1.1" xmlns="http://www.w3.org/2000/svg" xmlns:xlink="http://www.w3.org/1999/xlink" xml:space="preserve" style="fill-rule:evenodd;clip-rule:evenodd;stroke-linejoin:round;stroke-miterlimit:1.41421;">
    <g transform="matrix(1,0,0,1,-13910,-1326)">
        <g transform="matrix(0.471576,0,0,1.6674,7056.41,-721.39)">
            <g id="brand.-strategy.-icon" transform="matrix(4.89159,0,0,1.41459,14496.2,1219.69)">
                <g opacity="0.25">
                    <path d="M39.9,72C35.9,72 32.7,68.8 32.7,64.8C32.7,60.8 35.9,57.6 39.9,57.6C43.9,57.6 47.1,60.8 47.1,64.8C47.1,68.8 43.9,72 39.9,72ZM39.9,61.3C38,61.3 36.4,62.9 36.4,64.8C36.4,66.7 38,68.3 39.9,68.3C41.8,68.3 43.4,66.7 43.4,64.8C43.5,62.8 41.9,61.3 39.9,61.3Z" style="fill:rgb(198,198,198);fill-rule:nonzero;"/>
                    <path d="M59.8,72C55.8,72 52.6,68.8 52.6,64.8C52.6,60.8 55.8,57.6 59.8,57.6C63.8,57.6 67,60.8 67,64.8C67,68.8 63.8,72 59.8,72ZM59.8,61.3C57.9,61.3 56.3,62.9 56.3,64.8C56.3,66.7 57.9,68.3 59.8,68.3C61.7,68.3 63.3,66.7 63.3,64.8C63.3,62.8 61.8,61.3 59.8,61.3Z" style="fill:rgb(198,198,198);fill-rule:nonzero;"/>
                    <path d="M79.7,72C75.7,72 72.5,68.8 72.5,64.8C72.5,60.8 75.7,57.6 79.7,57.6C83.7,57.6 86.9,60.8 86.9,64.8C86.9,68.8 83.7,72 79.7,72ZM79.7,61.3C77.8,61.3 76.2,62.9 76.2,64.8C76.2,66.7 77.8,68.3 79.7,68.3C81.6,68.3 83.2,66.7 83.2,64.8C83.2,62.8 81.6,61.3 79.7,61.3Z" style="fill:rgb(198,198,198);fill-rule:nonzero;"/>
                    <g>
                        <path d="M57.1,47C56.2,48 56.2,49.5 57.1,50.4C57.7,50.9 58.2,51.1 58.8,51.1C59.4,51.1 60.1,50.8 60.5,50.4L62.2,48.7L63.9,50.4C64.5,50.9 65,51.1 65.6,51.1C66.2,51.1 66.9,50.8 67.3,50.4C68.2,49.4 68.2,47.9 67.3,47L65.6,45.3L67.3,43.6C68.2,42.6 68.2,41.1 67.3,40.2C66.3,39.3 64.8,39.3 63.9,40.2L62.4,41.9L60.7,40.2C59.7,39.3 58.2,39.3 57.3,40.2C56.4,41.2 56.4,42.7 57.3,43.6L59,45.3L57.1,47Z" style="fill:rgb(198,198,198);fill-rule:nonzero;"/>
                        <path d="M34.8,17C33.9,18 33.9,19.5 34.8,20.4C35.4,20.9 35.9,21.1 36.5,21.1C37.1,21.1 37.8,20.8 38.2,20.4L39.9,18.7L41.6,20.4C42.2,20.9 42.7,21.1 43.3,21.1C43.9,21.1 44.6,20.8 45,20.4C45.9,19.4 45.9,17.9 45,17L43.3,15.3L45,13.6C45.9,12.6 45.9,11.1 45,10.2C44,9.3 42.5,9.3 41.6,10.2L40.1,11.9L38.5,10.1C37.5,9.2 36,9.2 35.1,10.1C34.2,11.1 34.2,12.6 35.1,13.5L36.8,15.2L34.8,17Z" style="fill:rgb(198,198,198);fill-rule:nonzero;"/>
                        <path d="M75.6,37.3C74.7,38.3 74.7,39.8 75.6,40.7C76.2,41.2 76.7,41.4 77.3,41.4C77.9,41.4 78.6,41.1 79,40.7L80.7,39L82.4,40.7C83,41.2 83.5,41.4 84.1,41.4C84.7,41.4 85.4,41.1 85.8,40.7C86.7,39.7 86.7,38.2 85.8,37.3L84.1,35.6L85.8,33.9C86.7,32.9 86.7,31.4 85.8,30.5C84.8,29.6 83.3,29.6 82.4,30.5L80.9,32.2L79.2,30.5C78.2,29.6 76.7,29.6 75.8,30.5C74.9,31.5 74.9,33 75.8,33.9L77.5,35.6L75.6,37.3Z" style="fill:rgb(198,198,198);fill-rule:nonzero;"/>
                        <path d="M77,13.4L71.6,6.4C71,5.6 69.8,5.6 69.2,6.4L63.8,13.4C63.3,14.1 63.4,15 64.1,15.5C64.4,15.7 64.7,15.8 65,15.8C65.5,15.8 65.9,15.6 66.2,15.2L68.8,11.8C68.8,12.8 68.8,14 68.8,15.5C68.9,24.2 63.8,25 55.5,25.6C47.8,26.1 38.3,26.8 38.3,40.2C38.3,46.7 38.3,52.6 38.3,52.6C38.3,53.4 39,54.1 39.8,54.1C40.6,54.1 41.3,53.4 41.3,52.6C41.3,52.6 41.3,46.7 41.3,40.2C41.3,29.6 47.6,29.2 55.6,28.7C62.8,28.2 71.8,27.6 71.7,15.6C71.7,14 71.7,12.8 71.7,11.8L74.4,15.3C74.9,16 75.9,16.1 76.5,15.6C77.4,15.1 77.5,14.1 77,13.4Z" style="fill:rgb(198,198,198);fill-rule:nonzero;"/>
                    </g>
                    <path d="M59.8,91.9C55.8,91.9 52.6,88.7 52.6,84.7C52.6,80.7 55.8,77.5 59.8,77.5C63.8,77.5 67,80.7 67,84.7C67,88.7 63.8,91.9 59.8,91.9ZM59.8,81.1C57.9,81.1 56.3,82.7 56.3,84.6C56.3,86.5 57.9,88.1 59.8,88.1C61.7,88.1 63.3,86.5 63.3,84.6C63.3,82.7 61.8,81.1 59.8,81.1Z" style="fill:rgb(198,198,198);fill-rule:nonzero;"/>
                    <path d="M8.6,26C9.2,26.5 10.2,26.4 10.7,25.7L13.3,22.3L13.3,63.6C13.3,86.1 32.6,86.1 39,86.1L45.2,86.1C46,86.1 46.7,85.4 46.7,84.6C46.7,83.8 46,83.1 45.2,83.1L39,83.1C18.7,83.1 16.4,72 16.4,63.7L16.4,22.3L19,25.7C19.3,26.1 19.7,26.3 20.2,26.3C20.5,26.3 20.8,26.2 21.1,26C21.8,25.5 21.9,24.6 21.4,23.9L16,16.9C15.4,16.1 14.2,16.1 13.6,16.9L8.2,23.9C7.7,24.6 7.8,25.5 8.6,26Z" style="fill:rgb(198,198,198);fill-rule:nonzero;"/>
                </g>
            </g>
        </g>
    </g>
</svg>
