<svg width="100%" height="100%" viewBox="0 0 162 213" version="1.1" xmlns="http://www.w3.org/2000/svg" xmlns:xlink="http://www.w3.org/1999/xlink" xml:space="preserve" style="fill-rule:evenodd;clip-rule:evenodd;stroke-linejoin:round;stroke-miterlimit:1.41421;">
    <g transform="matrix(1,0,0,1,-14731,-1295)">
        <g transform="matrix(0.471576,0,0,1.6674,7866.41,-721.39)">
            <g id="content.-marketing.-icon" transform="matrix(4.25647,0,0,1.20382,14540.5,1210.91)">
                <g opacity="0.25">
                    <path d="M64.1,9.8L61.6,9.8C61.3,9.8 61.1,9.6 61.1,9.3C61.1,9 61.3,8.8 61.6,8.8L64.1,8.8C64.4,8.8 64.6,9 64.6,9.3C64.6,9.6 64.4,9.8 64.1,9.8Z" style="fill:rgb(198,198,198);fill-rule:nonzero;"/>
                    <path d="M60.6,7.1C60.5,7.1 60.3,7 60.2,6.9C60,6.7 60,6.3 60.2,6.1L62,4.3C62.2,4.1 62.6,4.1 62.8,4.3C63,4.5 63,4.9 62.8,5.1L61,6.9C60.9,7 60.8,7.1 60.6,7.1Z" style="fill:rgb(198,198,198);fill-rule:nonzero;"/>
                    <path d="M62.4,14.5C62.3,14.5 62.1,14.4 62,14.3L60.2,12.5C60,12.3 60,11.9 60.2,11.7C60.4,11.5 60.8,11.5 61,11.7L62.8,13.5C63,13.7 63,14.1 62.8,14.3C62.7,14.5 62.5,14.5 62.4,14.5Z" style="fill:rgb(198,198,198);fill-rule:nonzero;"/>
                    <path d="M57.8,7.2L57.8,2C57.8,1.8 57.7,1.6 57.4,1.5C57.2,1.4 56.9,1.5 56.8,1.7C56.8,1.7 53.4,5.7 46.8,5.7L40.5,5.7C39.7,5.7 39,6.1 38.6,6.7L38.5,6.7L37.4,6.7C37,6.7 36.7,7 36.7,7.4L36.7,11.4C36.7,11.8 37,12.1 37.4,12.1L38.5,12.1C38.8,12.5 39.3,12.8 39.8,13L43.1,21.7C43.2,22 43.5,22.3 43.9,22.3L47.1,22.3C47.4,22.3 47.7,22.1 47.9,21.8C48,21.5 48,21.1 47.8,20.9L46.1,19L43.9,13.2L46.8,13.2C53.4,13.2 56.8,17.2 56.8,17.2C56.9,17.3 57.1,17.4 57.2,17.4C57.3,17.4 57.3,17.4 57.4,17.4C57.6,17.3 57.8,17.1 57.8,16.9L57.8,11.7C58.8,11.5 59.5,10.6 59.5,9.5C59.5,8.4 58.8,7.4 57.8,7.2Z" style="fill:rgb(198,198,198);fill-rule:nonzero;"/>
                    <path d="M11.3,67.5C9.7,63 8.7,58.2 8.7,53.2C8.7,36.5 18.6,22.2 32.8,15.6L32.8,11.2C16.4,17.9 4.7,34.2 4.7,53.1C4.7,59.3 5.9,65.2 8.2,70.5L11.3,67.5Z" style="fill:rgb(198,198,198);fill-rule:nonzero;"/>
                    <path d="M91.5,53.1C91.5,57.7 90.7,62.1 89.4,66.2L92.6,69.4C94.6,64.3 95.6,58.8 95.6,53.1C95.6,33.9 83.7,17.5 66.8,10.8L66.8,15.2C81.4,21.7 91.5,36.3 91.5,53.1Z" style="fill:rgb(198,198,198);fill-rule:nonzero;"/>
                    <path d="M66.3,91.3C61.3,93.4 55.9,94.6 50.1,94.6C44.8,94.6 39.7,93.6 35,91.8L31.9,94.9C37.5,97.3 43.6,98.7 50,98.7C56.9,98.7 63.4,97.2 69.2,94.4L66.3,91.3Z" style="fill:rgb(198,198,198);fill-rule:nonzero;"/>
                    <path d="M93.5,78.4C91.9,72.4 85.8,68.8 79.7,70.4C73.7,72 70.1,78.1 71.7,84.2C72.5,87.1 74.2,89.4 76.5,90.8L73.5,95.3L85.4,92.2C91.5,90.6 95.1,84.4 93.5,78.4ZM83.3,85.5L77.3,85.5L77.3,83.7L83.3,83.7L83.3,85.5ZM88.5,81.9L77.3,81.9L77.3,80.1L88.5,80.1L88.5,81.9ZM88.5,78.5L77.3,78.5L77.3,76.7L88.5,76.7L88.5,78.5Z" style="fill:rgb(198,198,198);fill-rule:nonzero;"/>
                    <rect x="7.7" y="78.8" width="4" height="10.9" style="fill:rgb(198,198,198);"/>
                    <path d="M13.7,78.7L19.6,72L22.1,72.5L20.3,78.2L29.1,78.2L26.7,89.7L13.7,89.7" style="fill:rgb(198,198,198);fill-rule:nonzero;"/>
                    <path d="M47.4,38.7L32.7,38.7L32.7,52.3L47.4,52.3L47.4,38.7L47.4,38.7ZM44.9,49.9L35.1,49.9L35.1,41.2L44.9,41.2L44.9,49.9Z" style="fill:rgb(198,198,198);fill-rule:nonzero;"/>
                    <rect x="51.4" y="38.7" width="9.5" height="2.5" style="fill:rgb(198,198,198);"/>
                    <rect x="51.4" y="44.3" width="9.5" height="2.5" style="fill:rgb(198,198,198);"/>
                    <rect x="51.4" y="49.9" width="9.5" height="2.5" style="fill:rgb(198,198,198);"/>
                    <rect x="32.7" y="55.6" width="28.2" height="2.5" style="fill:rgb(198,198,198);"/>
                    <rect x="32.7" y="61" width="28.2" height="2.5" style="fill:rgb(198,198,198);"/>
                    <path d="M69.2,36.5L68.3,36.5C67.7,33.7 65.2,31.7 62.3,31.7L32,31.7C28.6,31.7 25.8,34.5 25.8,37.9L25.8,64.4C25.8,67.8 28.6,70.6 32,70.6L72,70.5L74.1,70.6C74.5,70.6 74.8,70.5 75.1,70.2C75.4,70 75.5,69.6 75.5,69.3L75.5,42.7C75.4,39.3 72.6,36.5 69.2,36.5ZM32,67.9C30.1,67.9 28.5,66.3 28.5,64.4L28.5,37.8C28.5,35.9 30.1,34.3 32,34.3L62.3,34.3C64.2,34.3 65.8,35.9 65.8,37.8L65.8,64.3C65.8,65.6 66.2,66.8 66.9,67.8L32,67.9ZM72.7,67.8L72,67.8L71.9,67.8C70,67.8 68.4,66.2 68.4,64.3L68.4,62.5L70.9,62.5L70.9,60L68.4,60L68.4,56.6L70.9,56.6L70.9,54.1L68.4,54.1L68.4,51L70.9,51L70.9,48.5L68.4,48.5L68.4,45.4L70.9,45.4L70.9,42.9L68.4,42.9L68.4,39L69.2,39C71.1,39 72.7,40.6 72.7,42.5L72.7,67.8Z" style="fill:rgb(198,198,198);fill-rule:nonzero;"/>
                </g>
            </g>
        </g>
    </g>
</svg>
