<?xml version="1.0" encoding="UTF-8" standalone="no"?><!DOCTYPE svg PUBLIC "-//W3C//DTD SVG 1.1//EN" "http://www.w3.org/Graphics/SVG/1.1/DTD/svg11.dtd"><svg width="100%" height="100%" viewBox="0 0 61 61" version="1.1" xmlns="http://www.w3.org/2000/svg" xmlns:xlink="http://www.w3.org/1999/xlink" xml:space="preserve" style="fill-rule:evenodd;clip-rule:evenodd;stroke-linejoin:round;stroke-miterlimit:1.41421;"><g id="lighting.-bolt.-icon"><circle cx="30.234" cy="30.586" r="29.901" style="fill:#43c4cc;"/><path d="M39.422,30.258c-0.127,-0.268 -0.398,-0.44 -0.695,-0.44l-4.894,0l0,-13.004c0,-0.325 -0.204,-0.614 -0.509,-0.723c-0.305,-0.109 -0.646,-0.015 -0.852,0.235l-11.325,13.772c-0.189,0.23 -0.228,0.547 -0.101,0.816c0.127,0.269 0.397,0.44 0.694,0.44l4.895,0l0,13.005c0,0.324 0.203,0.613 0.508,0.723c0.085,0.03 0.173,0.045 0.259,0.045c0.226,0 0.445,-0.1 0.594,-0.281l11.325,-13.772c0.188,-0.229 0.228,-0.547 0.101,-0.816Zm-11.251,11.957l0,-11.629c0,-0.424 -0.344,-0.768 -0.768,-0.768l-4.037,0l8.931,-10.861l0,11.629c0,0.424 0.344,0.768 0.768,0.768l4.037,0l-8.931,10.861Z" style="fill:#fff;fill-rule:nonzero;"/></g></svg>